<mxfile host="app.diagrams.net" modified="2024-02-17T10:04:11.016Z" agent="Mozilla/5.0 (Windows NT 10.0; Win64; x64; rv:122.0) Gecko/20100101 Firefox/122.0" etag="9zVVbOClh2Qf-4kcfY4w" version="23.1.5" type="github">
  <diagram name="Page-1" id="iB9zpl-80uYhElPLC5LR">
    <mxGraphModel dx="794" dy="414" grid="1" gridSize="10" guides="1" tooltips="1" connect="1" arrows="1" fold="1" page="1" pageScale="1" pageWidth="850" pageHeight="1100" math="0" shadow="0">
      <root>
        <mxCell id="0" />
        <mxCell id="1" parent="0" />
        <mxCell id="k2CD-8HE6C3lkmkYFEVn-1" value="&lt;div&gt;Kubernetes Node&lt;/div&gt;&lt;div&gt;(worker)&lt;/div&gt;" style="whiteSpace=wrap;html=1;aspect=fixed;" parent="1" vertex="1">
          <mxGeometry x="90" y="270" width="80" height="80" as="geometry" />
        </mxCell>
        <mxCell id="k2CD-8HE6C3lkmkYFEVn-2" value="&lt;div&gt;Kubernetes Node&lt;/div&gt;&lt;div&gt;(worker)&lt;/div&gt;" style="whiteSpace=wrap;html=1;aspect=fixed;" parent="1" vertex="1">
          <mxGeometry x="210" y="270" width="80" height="80" as="geometry" />
        </mxCell>
        <mxCell id="pODN0V4Rz4SqUN5RnkTI-1" value="&lt;div&gt;Kubernetes Node&amp;nbsp;&lt;/div&gt;&lt;div&gt;(worker)&lt;/div&gt;" style="whiteSpace=wrap;html=1;aspect=fixed;" vertex="1" parent="1">
          <mxGeometry x="331" y="270" width="80" height="80" as="geometry" />
        </mxCell>
      </root>
    </mxGraphModel>
  </diagram>
</mxfile>
